<?xml version="1.0" standalone="no"?>
<!DOCTYPE svg PUBLIC "-//W3C//DTD SVG 20010904//EN"
 "http://www.w3.org/TR/2001/REC-SVG-20010904/DTD/svg10.dtd">
<svg version="1.0" xmlns="http://www.w3.org/2000/svg"
 width="700.000000pt" height="700.000000pt" viewBox="0 0 700.000000 700.000000"
 preserveAspectRatio="xMidYMid meet">
<metadata>
Created by potrace 1.11, written by Peter Selinger 2001-2013
</metadata>
<g transform="translate(0.000000,700.000000) scale(0.100000,-0.100000)"
fill="#000000" stroke="none">
<path d="M2629 6708 c-1 -2 -2 -199 -3 -438 l-1 -435 -455 -1 c-250 -1 -475
-4 -500 -8 -191 -26 -356 -146 -441 -321 -63 -131 -64 -148 -63 -917 l0 -685
-85 -29 c-47 -15 -88 -28 -91 -29 -33 -6 -243 -82 -267 -96 -44 -27 -92 -84
-116 -138 -44 -100 -53 -64 400 -1641 47 -162 90 -315 97 -340 7 -25 21 -73
31 -107 l18 -63 61 0 c110 0 319 43 424 87 240 100 399 204 587 386 l110 106
70 -72 c257 -264 567 -435 887 -491 159 -27 382 -16 543 28 33 9 67 18 75 20
24 6 124 47 135 55 5 4 26 14 45 21 58 23 200 109 285 174 100 76 131 103 219
193 l71 72 105 -103 c246 -239 519 -391 806 -451 80 -16 274 -32 274 -22 0 4
80 289 120 427 20 68 172 606 185 655 17 61 89 316 115 405 144 495 157 562
125 648 -45 117 -95 151 -340 231 -104 34 -197 66 -205 70 -13 7 -15 98 -16
712 -1 387 -4 717 -8 734 -49 249 -233 431 -486 482 -14 3 -236 6 -495 7
l-470 1 -1 430 c-1 237 -2 433 -3 438 -1 6 -1739 11 -1742 5z m2621 -2039 c0
-319 -3 -578 -7 -576 -7 4 -689 229 -1208 398 -104 34 -267 87 -362 119 l-172
57 -83 -27 c-203 -67 -673 -221 -1143 -375 -280 -92 -513 -170 -517 -172 -5
-2 -8 257 -8 576 l0 581 1750 0 1750 0 0 -581z"/>
<path d="M2230 1194 c-211 -131 -476 -238 -685 -279 -161 -31 -247 -37 -595
-39 l-365 -2 0 -289 0 -290 365 0 c403 1 480 5 665 40 17 3 44 8 60 11 17 3
50 11 75 18 25 8 47 13 50 13 3 0 52 15 110 32 122 38 276 98 361 141 66 34
53 36 189 -28 222 -104 503 -179 780 -210 86 -9 436 -9 525 1 129 13 262 38
375 68 41 12 82 22 90 24 70 16 252 88 384 151 l49 24 98 -45 c54 -25 101 -45
104 -45 3 0 24 -9 48 -19 23 -11 87 -34 142 -51 55 -17 111 -35 125 -40 43
-16 231 -53 320 -65 25 -3 61 -8 80 -11 19 -3 215 -8 436 -11 l400 -5 0 291
c1 201 -3 291 -10 292 -6 1 -171 2 -366 4 -336 3 -423 9 -581 40 -72 14 -229
58 -268 76 -24 10 -48 19 -53 19 -30 0 -268 121 -387 196 -46 29 -89 50 -95
47 -6 -4 -44 -28 -85 -55 -180 -117 -510 -248 -691 -273 -24 -4 -47 -8 -50
-10 -3 -2 -37 -7 -75 -10 -38 -4 -78 -9 -90 -11 -30 -7 -306 -6 -362 1 -337
42 -646 151 -893 315 -30 20 -60 39 -65 42 -6 4 -58 -23 -115 -58z"/>
</g>
</svg>
