<?xml version="1.0" standalone="no"?>
<!DOCTYPE svg PUBLIC "-//W3C//DTD SVG 20010904//EN"
 "http://www.w3.org/TR/2001/REC-SVG-20010904/DTD/svg10.dtd">
<svg version="1.0" xmlns="http://www.w3.org/2000/svg"
 width="512.000000pt" height="512.000000pt" viewBox="0 0 512.000000 512.000000"
 preserveAspectRatio="xMidYMid meet">
<metadata>
Created by potrace 1.11, written by Peter Selinger 2001-2013
</metadata>
<g transform="translate(0.000000,512.000000) scale(0.100000,-0.100000)"
fill="#000000" stroke="none">
<path d="M2511 5088 c-41 -43 -48 -107 -26 -217 2 -14 7 -73 10 -133 l5 -108
-40 0 -39 0 -3 -47 c-3 -46 -4 -47 -38 -50 -194 -17 -396 -65 -563 -134 -155
-64 -157 -64 -157 -48 -1 8 -9 24 -20 37 -18 22 -21 22 -43 8 -23 -16 -24 -15
-63 57 -23 39 -60 117 -83 172 -48 112 -82 149 -138 149 -47 0 -68 -24 -66
-78 2 -49 18 -86 58 -131 14 -16 58 -77 96 -135 74 -113 74 -108 19 -140 -13
-8 -12 -14 5 -46 l20 -37 -25 -16 c-133 -87 -348 -293 -454 -436 -33 -44 -63
-84 -67 -89 -4 -5 -24 1 -44 12 l-36 22 -11 -25 c-6 -14 -15 -25 -21 -25 -13
0 -171 104 -240 158 -32 25 -66 48 -75 50 -54 12 -70 12 -95 3 -37 -14 -51
-53 -33 -94 18 -44 42 -63 117 -93 69 -28 236 -110 256 -126 10 -8 9 -17 -5
-40 -18 -32 -18 -32 34 -64 17 -10 17 -13 2 -45 -68 -144 -152 -410 -162 -509
-1 -14 -6 -50 -10 -80 -4 -30 -9 -71 -10 -90 -2 -34 -4 -35 -45 -38 -25 -2
-41 -8 -40 -15 4 -32 -2 -56 -14 -52 -6 2 -70 6 -140 9 -71 3 -133 8 -138 11
-19 12 -108 6 -137 -9 -59 -31 -68 -81 -21 -120 43 -36 68 -40 167 -27 48 6
131 13 185 16 l97 4 0 -41 0 -40 40 4 c31 3 40 0 41 -12 16 -213 85 -487 171
-673 31 -66 31 -71 14 -81 -50 -30 -50 -31 -32 -58 16 -24 15 -25 -22 -46 -58
-33 -182 -92 -238 -113 -113 -43 -159 -145 -84 -184 47 -24 103 -8 175 50 49
40 123 91 192 133 l53 32 15 -30 c18 -34 31 -37 64 -14 26 18 23 21 86 -66
112 -154 260 -301 426 -422 l70 -50 -20 -34 -21 -35 25 -11 c14 -6 25 -14 25
-18 0 -11 -86 -145 -131 -203 -87 -115 -109 -182 -71 -225 46 -54 143 -7 172
84 13 41 115 251 131 271 8 9 17 7 40 -5 32 -18 34 -18 64 33 10 16 13 16 52
-3 163 -84 488 -168 678 -176 27 -1 30 -5 35 -41 4 -33 9 -41 30 -43 14 -2 27
-6 29 -8 8 -8 -1 -187 -15 -278 -16 -102 6 -172 60 -191 31 -11 50 -2 80 39
23 30 25 70 11 211 -5 44 -9 113 -9 154 l-1 75 35 0 c20 1 35 6 36 14 1 6 2
25 3 40 0 16 7 29 14 29 162 2 433 69 632 154 50 22 96 39 102 39 7 0 20 -14
28 -30 15 -29 17 -30 43 -16 25 13 27 12 42 -13 26 -43 67 -123 88 -171 11
-25 29 -66 40 -91 44 -102 140 -141 175 -71 25 50 6 114 -57 188 -36 43 -84
114 -127 186 l-28 47 35 17 34 16 -20 33 c-11 18 -20 36 -20 41 0 5 17 20 37
34 136 92 325 278 440 433 36 48 68 87 72 87 3 0 19 -9 36 -20 l30 -19 20 25
21 26 70 -44 c38 -25 101 -69 139 -98 107 -81 170 -100 213 -62 56 47 8 138
-94 177 -63 23 -199 88 -242 115 -33 20 -33 22 -18 45 22 34 20 42 -14 60 -35
18 -37 32 -11 83 41 82 114 310 136 427 12 69 25 163 29 210 l3 50 47 3 c29 2
46 8 45 15 -6 48 -4 48 101 46 55 -1 121 -6 147 -11 119 -24 207 -3 228 56 11
31 2 50 -39 80 -29 22 -103 28 -181 13 -22 -4 -88 -9 -147 -12 -118 -5 -115
-7 -109 57 2 13 -8 17 -46 20 -43 3 -48 5 -49 28 -10 193 -85 477 -175 663
l-27 57 39 20 c21 11 39 23 39 26 0 2 -7 16 -16 29 -15 23 -15 24 23 43 136
69 194 96 238 113 69 26 117 76 118 123 1 47 -21 69 -70 68 -55 -1 -78 -12
-177 -87 -49 -37 -98 -71 -110 -76 -12 -5 -38 -20 -58 -34 l-37 -25 -16 30
c-18 35 -27 37 -69 11 l-32 -20 -59 81 c-110 149 -317 349 -465 450 l-25 16
22 42 22 41 -25 11 c-13 6 -24 15 -24 20 0 12 91 152 102 156 4 2 8 8 8 14 0
5 15 28 34 51 72 90 91 150 65 199 -7 12 -13 26 -12 29 1 3 -16 5 -37 3 -54
-3 -95 -36 -122 -96 -40 -90 -129 -273 -140 -286 -8 -9 -18 -8 -43 8 -32 20
-34 20 -39 3 -4 -10 -14 -28 -24 -41 l-18 -23 -65 30 c-181 82 -453 154 -619
163 l-55 3 -5 45 c-4 40 -8 45 -32 48 -16 2 -28 9 -29 15 -2 22 3 170 6 191 2
12 6 41 10 66 8 68 10 74 19 89 6 9 5 12 -1 8 -7 -4 -14 8 -18 29 -13 73 -83
107 -124 62z m-91 -1073 l0 -55 41 0 40 0 -6 -87 c-14 -194 -21 -269 -30 -282
-8 -13 -18 -105 -18 -161 0 -53 6 -106 19 -156 5 -21 2 -24 -20 -24 -25 0 -26
-2 -26 -55 0 -41 -4 -55 -14 -55 -8 0 -20 -2 -28 -5 -8 -3 -23 12 -38 40 -25
46 -34 53 -45 35 -10 -16 -25 -12 -31 8 -36 109 -77 183 -140 250 -47 50 -147
191 -147 208 0 8 -3 12 -5 9 -6 -6 -72 90 -72 104 0 6 14 18 30 26 33 17 32
25 -11 86 -18 26 -18 26 9 39 15 8 29 14 32 14 3 1 10 4 15 7 37 23 259 83
348 96 23 3 43 6 44 7 1 1 13 2 27 4 25 2 26 0 26 -53z m391 35 c97 -15 350
-92 378 -116 2 -2 -8 -24 -23 -50 -30 -54 -30 -54 -13 -54 8 0 22 -9 32 -20
18 -19 17 -22 -40 -107 -62 -94 -141 -201 -159 -218 -56 -50 -132 -184 -143
-250 -5 -31 -7 -33 -29 -23 -13 6 -26 9 -28 7 -2 -2 -15 -23 -29 -45 -22 -35
-30 -41 -51 -37 -24 5 -26 9 -26 59 0 51 -1 54 -25 54 -29 0 -28 -3 -12 75 14
65 13 185 -2 225 -13 34 -30 196 -35 338 l-3 72 39 0 38 0 0 55 0 56 33 -6
c17 -3 62 -10 98 -15z m-1100 -300 c26 -45 30 -47 65 -24 13 9 26 15 28 13 7
-7 120 -241 142 -294 12 -27 27 -70 34 -94 14 -54 83 -165 125 -203 l30 -27
-22 -16 -22 -15 25 -44 25 -44 -21 -20 c-21 -20 -22 -20 -65 5 -44 24 -44 24
-55 4 -10 -20 -13 -19 -63 22 -77 62 -112 82 -217 120 -109 39 -350 156 -350
169 0 5 7 22 15 37 14 28 14 28 -35 55 l-49 27 37 52 c75 105 321 334 344 321
4 -3 17 -22 29 -44z m1814 -30 c92 -77 265 -267 265 -291 0 -5 -18 -18 -40
-29 -45 -23 -47 -30 -24 -66 9 -13 15 -26 13 -28 -24 -22 -304 -150 -371 -170
-62 -18 -163 -77 -213 -125 -36 -34 -36 -34 -51 -13 l-15 21 -46 -25 c-45 -26
-45 -26 -65 -6 -20 20 -20 20 6 65 27 46 27 46 6 57 -11 6 -18 15 -15 21 4 5
12 6 18 3 7 -4 9 -4 5 1 -6 6 36 70 62 95 13 13 35 62 70 154 35 96 113 264
153 333 l19 33 30 -21 c16 -12 31 -20 32 -18 2 2 15 23 30 47 l27 43 37 -28
c20 -15 50 -39 67 -53z m-2298 -553 c43 -27 52 -25 67 17 4 12 13 17 25 13 30
-7 253 -162 318 -220 69 -62 129 -98 198 -121 83 -28 80 -25 67 -38 -20 -20
-13 -33 29 -57 27 -16 38 -28 35 -38 -3 -8 -6 -21 -6 -29 0 -10 -14 -14 -54
-14 -52 0 -53 -1 -48 -26 5 -25 3 -26 -24 -19 -81 20 -176 26 -239 14 -127
-25 -180 -31 -392 -43 l-53 -3 0 38 0 39 -60 0 -60 0 6 43 c3 23 8 53 10 67 2
14 7 41 10 60 15 94 111 370 123 352 3 -5 25 -21 48 -35z m2588 12 l16 -30 46
26 c26 14 50 22 54 18 4 -5 25 -57 47 -118 41 -113 69 -221 78 -303 3 -26 7
-55 10 -64 5 -16 -2 -18 -50 -18 -59 0 -62 -3 -57 -61 1 -13 -9 -15 -66 -13
-145 5 -242 15 -343 36 -79 16 -177 16 -235 1 -66 -17 -65 -17 -65 12 0 24 -3
25 -55 25 -30 0 -55 3 -55 8 0 4 -3 16 -6 27 -4 17 4 25 40 44 46 22 55 34 36
46 -16 10 -12 25 8 31 100 33 186 77 227 119 56 56 323 245 347 245 4 0 15
-14 23 -31z m-1129 -193 c133 -42 272 -180 298 -297 28 -123 29 -175 5 -264
-39 -143 -171 -275 -314 -314 -288 -77 -577 133 -579 423 -1 97 8 139 49 223
76 156 244 254 420 248 39 -2 93 -10 121 -19z m1270 -501 c1 -11 2 -28 3 -37
1 -15 11 -18 56 -18 53 0 54 0 51 -27 -2 -16 -7 -53 -11 -83 -8 -64 -39 -194
-61 -253 -44 -118 -57 -147 -65 -147 -5 0 -23 9 -41 20 -43 26 -56 25 -70 -6
-8 -16 -18 -24 -29 -21 -27 7 -255 165 -312 216 -80 72 -142 106 -261 145 -15
5 -17 9 -8 18 22 22 13 38 -32 60 -39 19 -43 23 -37 47 7 23 13 26 59 29 48 3
52 5 52 28 0 20 4 24 18 20 68 -21 202 -26 272 -10 71 16 125 23 230 30 47 3
86 7 87 8 1 1 23 1 50 1 41 0 48 -3 49 -20z m-2587 0 c84 -7 110 -10 189 -26
81 -16 148 -17 221 -4 73 14 81 13 81 -16 0 -17 6 -19 40 -17 45 2 58 -6 62
-42 2 -19 -4 -28 -34 -42 -41 -19 -45 -27 -26 -46 15 -15 5 -24 -47 -41 -63
-20 -142 -62 -183 -99 -88 -79 -331 -252 -353 -252 -5 0 -16 14 -24 30 l-16
31 -54 -31 -55 -31 -11 28 c-43 106 -54 139 -80 233 -16 57 -31 122 -34 145
-3 22 -7 58 -10 80 l-5 40 60 -3 60 -4 0 40 0 40 72 -4 c39 -1 105 -5 147 -9z
m759 -375 c10 -17 9 -27 -8 -60 -20 -39 -20 -39 0 -50 19 -10 17 -14 -34 -77
-52 -62 -71 -99 -131 -258 -23 -60 -129 -281 -141 -294 -2 -3 -19 3 -38 11
l-34 17 -26 -50 c-15 -27 -31 -49 -35 -49 -4 0 -50 35 -102 78 -88 74 -190
180 -252 264 l-27 37 54 27 54 27 -20 34 c-11 19 -19 35 -17 38 15 14 290 142
359 166 101 36 159 68 217 122 44 40 44 40 59 19 l15 -22 37 24 c41 26 51 25
70 -4z m932 10 l39 -20 11 21 c11 20 13 19 52 -16 60 -55 123 -92 197 -116 63
-21 228 -95 339 -152 l53 -28 -21 -26 c-11 -14 -20 -29 -20 -33 0 -4 20 -17
45 -30 25 -13 45 -25 45 -27 0 -36 -197 -255 -295 -328 -22 -17 -46 -36 -53
-42 -20 -20 -25 -17 -51 32 -26 50 -31 52 -67 29 -13 -9 -26 -15 -28 -13 -7 7
-124 243 -141 284 -9 22 -25 67 -35 100 -22 67 -61 134 -115 194 -36 39 -39
61 -9 61 12 0 9 11 -12 50 -27 49 -27 51 -8 65 25 19 28 19 74 -5z m-632 -213
c3 -42 6 -47 28 -47 28 0 28 -1 13 -55 -16 -57 -18 -171 -3 -235 16 -71 22
-117 29 -226 3 -49 8 -113 10 -141 l4 -53 -39 0 -40 0 0 -61 0 -61 -35 6 c-19
4 -56 9 -82 12 -86 9 -290 68 -366 106 -41 20 -41 25 5 90 l19 28 -35 21 -35
20 56 87 c65 101 127 184 195 261 42 49 108 163 108 190 0 5 5 22 10 37 8 21
14 24 22 16 19 -19 32 -14 57 27 20 34 27 38 50 32 23 -6 26 -13 29 -54z m344
21 c17 -32 23 -36 39 -27 22 12 39 4 39 -17 0 -21 39 -111 69 -159 13 -22 23
-40 20 -41 -2 -1 11 -14 29 -29 43 -36 161 -196 221 -300 21 -37 22 -40 6 -50
-50 -30 -49 -28 -17 -80 17 -27 30 -50 29 -51 -1 -1 -42 -18 -92 -37 -97 -39
-256 -83 -333 -92 -26 -4 -57 -8 -69 -10 -25 -4 -26 0 -23 73 l2 42 -41 0 -41
0 5 78 c13 214 20 277 36 337 18 66 15 183 -7 272 -4 13 -2 23 2 22 24 -4 45
2 43 14 -6 45 2 86 19 90 32 9 45 2 64 -35z"/>
<path d="M2502 2788 c-153 -26 -236 -195 -168 -343 83 -182 340 -183 433 -2
90 178 -65 380 -265 345z"/>
</g>
</svg>
